<?xml version="1.0" encoding="UTF-8"?>
<svg width="256px" height="256px" viewBox="0 0 256 256" version="1.1" xmlns="http://www.w3.org/2000/svg" xmlns:xlink="http://www.w3.org/1999/xlink">
    <!-- Generator: Sketch 48 (47235) - http://www.bohemiancoding.com/sketch -->
    <title>Morning ocean presented</title>
    <desc>Created with Sketch.</desc>
    <defs>
        <radialGradient cx="96.4906181%" cy="-5.84073894%" fx="96.4906181%" fy="-5.84073894%" r="116.343889%" gradientTransform="translate(0.964906,-0.058407),scale(0.680559,1.000000),rotate(131.562817),scale(1.000000,1.514314),translate(-0.964906,0.058407)" id="radialGradient-1">
            <stop stop-color="#00D0FF" offset="0%"></stop>
            <stop stop-color="#6FF7A5" offset="100%"></stop>
        </radialGradient>
    </defs>
    <g id="Page-1" stroke="none" stroke-width="1" fill="none" fill-rule="evenodd">
        <g id="Morning-ocean-presented">
            <g id="Group">
                <rect id="Rectangle" fill="#4D5767" x="0" y="0" width="256" height="256" rx="28"></rect>
                <path d="M119.128275,90.6358034 C115.861283,94.2547958 112.576185,97.8287341 109.906272,101.261413 C107.236359,104.694092 107.222838,104.66029 102.688671,110.744232 C98.4872728,103.290645 87.665962,94 78.5,94 C64.9690236,94 54,104.969024 54,118.5 C54,132.030976 64.9690236,143 78.5,143 C87.0803387,143 94.8523528,138.542013 101.231925,131.542013 C107.611498,124.542013 103.859817,129.564601 119.788411,107.171809 C128.581745,95.8436182 131.78049,91.3767715 140,84 C148.21951,76.6232285 163.348442,69 178,69 C205.061953,69 227,90.9380473 227,118 C227,135.952645 214.178542,149.675841 202.944928,160.184159 C197.773465,165.021728 193.235854,169.31969 185.645468,176.905978 C181.370224,181.178913 173.474983,188.956359 161.959744,200.238316 C157.128317,204.959991 149.397294,204.915584 144.620428,200.138717 C140.00318,195.52147 140.00318,188.035433 144.620428,183.418186 C144.677352,183.361261 151.194581,177.229108 164.172115,165.021728 C160.181453,163.850069 156.40218,162.184201 152.905086,160.094914 L115.861283,197.138717 C111.100352,201.899648 103.381358,201.899648 98.6204275,197.138717 C93.8594969,192.377787 93.8594969,184.658793 98.6204275,179.897862 L135.725848,142.792442 C133.671129,139.296444 132.037693,135.523051 130.89529,131.542013 C128.505983,135.128013 123.207553,140.947342 115,149 C102.688671,161.078987 93.8083597,167 74,167 C46.9380473,167 29,145.061953 29,118 C29,90.9380473 50.9380473,69 78,69 C95.0781827,69 110.3573,77.3877057 119.128275,90.6358034 Z M178.5,143 C192.030976,143 203,132.030976 203,118.5 C203,104.969024 192.030976,94 178.5,94 C164.969024,94 154,104.969024 154,118.5 C154,132.030976 164.969024,143 178.5,143 Z" id="Combined-Shape-Copy" fill="url(#radialGradient-1)" opacity="0.864413496"></path>
            </g>
        </g>
    </g>
</svg>